<?xml version="1.0" standalone="no"?>
<!DOCTYPE svg PUBLIC "-//W3C//DTD SVG 20010904//EN"
 "http://www.w3.org/TR/2001/REC-SVG-20010904/DTD/svg10.dtd">
<svg version="1.0" xmlns="http://www.w3.org/2000/svg"
 width="692.000000pt" height="642.000000pt" viewBox="0 0 692.000000 642.000000"
 preserveAspectRatio="xMidYMid meet">

<g transform="translate(0.000000,642.000000) scale(0.100000,-0.100000)"
fill="#000000" stroke="none">
<path d="M0 3210 l0 -3210 3460 0 3460 0 0 3210 0 3210 -3460 0 -3460 0 0
-3210z m4102 2881 c269 -43 529 -125 763 -241 275 -135 440 -245 652 -432 285
-252 460 -479 642 -833 147 -284 254 -637 297 -974 24 -199 16 -551 -19 -752
-65 -373 -173 -669 -375 -1032 -28 -49 -72 -75 -110 -63 -11 4 -102 90 -203
193 -101 102 -199 199 -216 216 -44 41 -43 77 6 175 149 297 221 644 208 997
-7 186 -25 312 -69 480 -193 747 -832 1360 -1573 1510 -372 75 -751 47 -1100
-82 -105 -39 -334 -155 -428 -217 -46 -31 -115 -83 -154 -116 -40 -33 -76 -60
-80 -60 -10 0 -111 -103 -139 -141 -10 -15 -44 -57 -75 -95 -83 -104 -140
-188 -209 -309 -35 -60 -76 -125 -93 -142 l-31 -33 -305 0 c-336 0 -341 1
-373 60 -32 59 -21 99 95 332 211 427 477 759 805 1007 421 317 844 495 1322
555 69 9 139 18 155 20 17 2 131 3 255 1 165 -3 259 -9 352 -24z m-127 -1346
c256 -53 571 -220 745 -395 184 -185 333 -451 408 -730 24 -89 25 -110 26
-340 1 -199 -2 -260 -17 -325 -32 -147 -80 -279 -157 -431 l-77 -151 31 -11
c20 -7 232 -213 573 -554 598 -599 569 -564 566 -693 -2 -83 -33 -160 -93
-227 -64 -72 -135 -103 -235 -103 -129 0 -118 -9 -714 590 -292 294 -535 545
-540 557 -5 14 -5 31 1 41 8 16 1 14 -39 -9 -26 -15 -52 -31 -58 -36 -5 -4
-17 -8 -27 -8 -20 0 -100 -37 -108 -51 -11 -16 -122 -59 -217 -83 -147 -38
-261 -50 -398 -42 -107 6 -279 32 -231 35 39 2 5 13 -83 26 -222 34 -481 181
-674 385 -157 165 -246 299 -320 485 -77 192 -100 285 -96 389 4 132 3 174 -8
241 -23 149 52 454 163 666 119 226 333 459 538 586 175 109 387 185 511 184
39 0 84 3 100 8 52 16 348 13 430 -4z m-2379 -1014 c59 -27 84 -63 84 -122 0
-44 -4 -53 -43 -94 l-44 -45 -389 -2 c-819 -6 -814 -6 -855 20 -44 27 -69 75
-69 132 0 37 6 49 44 86 l43 44 594 0 c557 0 597 -2 635 -19z m137 -535 c52
-22 70 -50 75 -114 4 -53 2 -60 -31 -97 l-35 -40 -387 -3 -387 -3 -39 39 c-35
36 -39 45 -39 90 0 43 5 57 32 88 18 20 41 40 52 44 12 5 180 9 374 9 276 1
360 -2 385 -13z m-63 -531 c65 -34 97 -113 69 -168 -17 -33 -51 -68 -76 -78
-12 -4 -304 -9 -647 -10 l-626 -1 -36 22 c-19 13 -40 34 -45 47 -14 38 -11
112 7 142 37 63 7 60 697 61 539 0 632 -2 657 -15z m333 -644 c15 -8 58 -53
95 -100 318 -402 735 -652 1252 -750 210 -40 498 -36 729 8 122 24 301 83 439
145 56 25 117 46 134 46 29 0 59 -27 278 -246 l245 -245 -38 -33 c-20 -18 -90
-60 -155 -94 -227 -117 -419 -188 -673 -251 -214 -53 -245 -58 -442 -71 -348
-25 -768 32 -1095 149 -469 168 -866 451 -1212 866 -153 184 -203 253 -251
351 -64 128 -61 190 11 227 32 16 64 17 345 15 244 -2 316 -6 338 -17z"/>
<path d="M3539 4360 c-154 -26 -331 -99 -463 -190 -136 -94 -275 -258 -358
-425 -109 -217 -132 -491 -64 -775 32 -136 66 -211 150 -340 74 -113 138 -186
198 -225 24 -15 61 -40 83 -55 98 -66 214 -124 308 -152 242 -74 575 -39 807
84 156 83 285 197 366 323 21 33 44 66 51 73 25 25 92 177 118 267 76 264 49
571 -71 810 -115 228 -321 433 -497 495 -28 10 -73 28 -99 39 -26 12 -91 31
-145 42 -54 11 -102 24 -108 30 -11 11 -210 10 -276 -1z"/>
</g>
</svg>
