<?xml version="1.0" encoding="UTF-8"?>
<svg version="1.1" xmlns="http://www.w3.org/2000/svg" width="1254" height="1254">
<path d="M0 0 C413.82 0 827.64 0 1254 0 C1254 413.82 1254 827.64 1254 1254 C840.18 1254 426.36 1254 0 1254 C0 840.18 0 426.36 0 0 Z " fill="#040407" transform="translate(0,0)"/>
<path d="M0 0 C1.20520294 -0.01469078 1.20520294 -0.01469078 2.43475342 -0.02967834 C35.7789508 -0.35265328 35.7789508 -0.35265328 50.5859375 4.23828125 C51.6682666 4.55974121 51.6682666 4.55974121 52.77246094 4.88769531 C63.600083 8.17183499 73.65547431 12.85409055 83.5859375 18.23828125 C84.49859375 18.73070312 85.41125 19.223125 86.3515625 19.73046875 C120.63763379 39.30670945 144.37752079 73.51461686 154.8984375 111.05078125 C155.53268776 113.45289651 156.09530311 115.80730868 156.5859375 118.23828125 C156.85301514 119.54962036 156.85301514 119.54962036 157.12548828 120.88745117 C158.7673411 130.04584315 158.8923659 139.06061084 158.84667969 148.33227539 C158.83591158 150.93203818 158.84665873 153.5311168 158.859375 156.13085938 C158.86659332 164.40305212 158.70247658 172.19021863 156.5859375 180.23828125 C156.31617583 181.56766032 156.0529619 182.89838783 155.796875 184.23046875 C152.10396416 201.38352191 145.25300258 217.03450112 136.5859375 232.23828125 C136.0300293 233.2135376 136.0300293 233.2135376 135.46289062 234.20849609 C134.50569448 235.88611272 133.5460503 237.56233214 132.5859375 239.23828125 C133.31544868 239.31854616 134.04495987 239.39881107 134.79657745 239.48150826 C138.25894071 240.42087175 139.67949081 241.8238269 142.21569824 244.34664917 C143.11566025 245.23244156 144.01562225 246.11823395 144.94285583 247.03086853 C145.92760782 248.02020813 146.91214344 249.00976314 147.89648438 249.99951172 C148.9424726 251.03680323 149.98929283 252.07325633 151.03688049 253.1089325 C153.87909326 255.92435513 156.70834995 258.75246667 159.53466225 261.58384085 C161.8990317 263.95035109 164.26933094 266.31087767 166.6395545 268.67152226 C172.23693021 274.24669974 177.82357226 279.83247644 183.40380859 285.42480469 C189.14688558 291.17993579 194.90800886 296.91652955 200.67840338 302.64425933 C205.64060516 307.57112571 210.59100264 312.5096409 215.5323205 317.45745194 C218.47962015 320.40836444 221.4311156 323.35473168 224.39414978 326.28985214 C227.18532533 329.05571453 229.96137025 331.83594951 232.72691154 334.62743568 C233.73872948 335.64395221 234.75558255 336.6554882 235.7780323 337.6613102 C242.96482115 344.73968338 248.33279257 351.64084177 250.25 361.734375 C250.09863057 373.13249283 246.63855149 382.13016818 238.69921875 390.3984375 C235.58375284 393.11079322 232.42625462 394.7779926 228.5859375 396.23828125 C227.6371875 396.65078125 226.6884375 397.06328125 225.7109375 397.48828125 C217.10740358 399.55312939 209.4280253 398.2577405 201.5859375 394.23828125 C197.50948226 391.10584941 193.94936881 387.51140593 190.36303711 383.84179688 C189.29226738 382.77232937 188.21996673 381.70439281 187.14627075 380.63786316 C184.25687359 377.75894756 181.38956207 374.85893813 178.52619624 371.95416069 C175.51898106 368.91042251 172.49252919 365.88592437 169.46839905 362.85900879 C164.39922945 357.77972704 159.34324171 352.68763459 154.29614258 347.58642578 C147.81883549 341.03978846 141.32079898 334.51414481 134.81577206 327.99506378 C129.21515207 322.38216472 123.62328295 316.7605715 118.03323674 311.13714409 C116.23872363 309.33247613 114.44316852 307.52884943 112.64753532 305.72529602 C109.82953069 302.89360854 107.01701628 300.05657413 104.20868301 297.21529579 C103.1775806 296.17355919 102.14479904 295.13348154 101.11022758 294.09519005 C99.69899891 292.67822289 98.29456198 291.2545011 96.89048767 289.83044434 C96.10281478 289.0355233 95.31514189 288.24060226 94.50360012 287.42159271 C92.72186282 285.39303596 91.50904517 283.7684327 90.5859375 281.23828125 C91.4609375 278.98828125 91.4609375 278.98828125 92.5859375 277.23828125 C91.62558594 277.85574219 90.66523437 278.47320313 89.67578125 279.109375 C77.90639206 286.46835277 65.7411407 291.838278 52.5859375 296.23828125 C51.73 296.52638672 50.8740625 296.81449219 49.9921875 297.11132812 C15.04492073 308.27807196 -24.35448411 301.31968286 -56.2890625 284.92578125 C-64.7304837 280.44661291 -72.19067394 275.50178327 -79.4140625 269.23828125 C-79.91695801 268.80547852 -80.41985352 268.37267578 -80.93798828 267.92675781 C-100.60780659 250.87833662 -116.83796192 230.01633908 -125.4140625 205.23828125 C-125.69813965 204.43616211 -125.9822168 203.63404297 -126.27490234 202.80761719 C-133.36275613 182.73588457 -133.36275613 182.73588457 -134.4140625 172.23828125 C-134.52234375 171.35269531 -134.630625 170.46710938 -134.7421875 169.5546875 C-138.96540236 129.48971497 -128.7778966 88.72402672 -103.70703125 56.82617188 C-99.83859746 52.0753612 -95.66505796 47.64560752 -91.4140625 43.23828125 C-90.57488281 42.32433594 -89.73570312 41.41039062 -88.87109375 40.46875 C-66.83769084 17.16867643 -32.30691328 0.3227089 0 0 Z " fill="#41C073" transform="translate(631.4140625,457.76171875)"/>
<path d="M0 0 C0.94391602 0.1659668 1.88783203 0.33193359 2.86035156 0.50292969 C15.25909882 2.76752042 27.17373871 6.50511633 39.125 10.4375 C40.17753967 10.7809697 40.17753967 10.7809697 41.25134277 11.13137817 C50.22138754 14.07861466 58.64303971 17.5668974 67 22 C68.36685403 22.67912197 69.73631099 23.35305407 71.109375 24.01953125 C85.88705146 31.27561213 99.82811968 39.09434871 113 49 C113.55816406 49.4139502 114.11632812 49.82790039 114.69140625 50.25439453 C121.6220866 55.39813322 128.18695258 60.81867487 134.515625 66.69921875 C136.66002512 68.68514905 138.84043593 70.60235728 141.0625 72.5 C148.67747529 79.15144781 155.50932749 86.34631989 161.8046875 94.25390625 C163.19631067 95.99467332 164.61540953 97.71410728 166.0703125 99.40234375 C181.31245329 117.20358936 192.72436895 137.93187385 202.875 158.9375 C203.32770264 159.87255371 203.78040527 160.80760742 204.24682617 161.77099609 C209.26978365 172.35699383 212.90309052 183.35869182 216.26416016 194.56787109 C216.77564512 196.2584528 217.29687553 197.94610423 217.82568359 199.63134766 C229.45021377 236.8181482 232.25265084 275.39521101 227 314 C226.82259277 315.37792725 226.82259277 315.37792725 226.64160156 316.78369141 C222.04356598 351.432756 209.84451964 384.43520186 193.75 415.3125 C193.34998779 416.08271484 192.94997559 416.85292969 192.5378418 417.64648438 C191.39829772 419.79006428 190.21698886 421.89953375 189 424 C188.42475586 425.019729 188.42475586 425.019729 187.83789062 426.06005859 C187.44279297 426.69379395 187.04769531 427.3275293 186.640625 427.98046875 C186.30063477 428.54016357 185.96064453 429.0998584 185.61035156 429.67651367 C182.83115007 431.96063303 180.53126804 432.00626646 177 432 C174.56796674 430.36224745 172.91737047 428.98468978 170.92578125 426.9140625 C170.37352371 426.37206207 169.82126617 425.83006165 169.25227356 425.27163696 C168.08094589 424.11790193 166.91825658 422.95534039 165.76373291 421.78479004 C164.03472551 420.0351401 162.28153626 418.31442847 160.51708984 416.60058594 C157.62665036 413.78712956 154.76287475 410.94858602 151.91088867 408.09619141 C150.14843759 406.33598739 148.37803708 404.58401859 146.60742188 402.83203125 C145.48128569 401.70881953 144.35561546 400.5851404 143.23046875 399.4609375 C142.43856392 398.67981094 142.43856392 398.67981094 141.63066101 397.88290405 C138 394.22890272 138 394.22890272 138 392 C137.38125 391.731875 136.7625 391.46375 136.125 391.1875 C134 390 134 390 132 387 C131.25114149 381.51102646 133.38269574 377.76875662 135.875 373.0625 C160.23753649 323.969931 163.02240408 265.43936437 146.375 213.5625 C136.36520542 184.52328495 120.33909195 157.16876116 99 135 C98.48131348 134.45021484 97.96262695 133.90042969 97.42822266 133.33398438 C83.6484102 118.77624775 68.29603736 107.08603152 51 97 C50.41105957 96.65130859 49.82211914 96.30261719 49.21533203 95.94335938 C9.09192682 72.42468084 -40.55913623 65.3103863 -86 74 C-86.87027832 74.16628906 -87.74055664 74.33257812 -88.63720703 74.50390625 C-108.21151278 78.40216371 -126.46205031 85.55757164 -144 95 C-145.16660156 95.61359375 -146.33320312 96.2271875 -147.53515625 96.859375 C-171.94954886 110.18132091 -193.41753067 129.83128092 -210 152 C-210.42667969 152.56058105 -210.85335937 153.12116211 -211.29296875 153.69873047 C-217.6215297 162.03539249 -222.82867139 170.74896106 -227.7734375 179.96875 C-230.5780335 185.12939955 -233.4195234 190.22526772 -238 194 C-240.80786133 194.49447632 -240.80786133 194.49447632 -244.08203125 194.48583984 C-245.92414185 194.49506973 -245.92414185 194.49506973 -247.8034668 194.50448608 C-249.13981882 194.49068916 -250.4761634 194.47615511 -251.8125 194.4609375 C-253.1872541 194.45855181 -254.5620115 194.45764802 -255.93676758 194.4581604 C-258.81514967 194.45503552 -261.69303255 194.43849569 -264.57128906 194.41162109 C-268.25677418 194.3776413 -271.94171117 194.36999272 -275.62733459 194.37151146 C-278.46526297 194.37096702 -281.30307205 194.35998813 -284.14096069 194.34550858 C-285.49969582 194.33915416 -286.85844443 194.33520486 -288.2171936 194.33372116 C-290.11750156 194.32937391 -292.01775839 194.31027056 -293.91796875 194.29052734 C-294.99844482 194.28290375 -296.0789209 194.27528015 -297.19213867 194.26742554 C-300.03993181 193.99619683 -301.64120889 193.58766988 -304 192 C-307.26513658 187.28369161 -308.32410525 184.80530983 -308 179 C-307.10620117 176.2175293 -307.10620117 176.2175293 -305.85546875 173.38671875 C-305.16783447 171.81929932 -305.16783447 171.81929932 -304.46630859 170.22021484 C-303.98242676 169.15754395 -303.49854492 168.09487305 -303 167 C-302.5457666 165.99791504 -302.0915332 164.99583008 -301.62353516 163.96337891 C-290.8826237 140.65291299 -278.49649895 118.75155526 -262 99 C-261.28585937 98.10152344 -260.57171875 97.20304687 -259.8359375 96.27734375 C-247.32211914 80.88336085 -232.7905254 65.81934913 -216.6640625 54.20654297 C-214.86932775 52.90525495 -213.1062642 51.56722131 -211.34375 50.22265625 C-202.90780289 43.83384398 -194.19806452 38.22035574 -185 33 C-184.19175781 32.5344873 -183.38351562 32.06897461 -182.55078125 31.58935547 C-169.11625123 23.88056591 -155.50935119 17.42152859 -141 12 C-140.32984863 11.74669922 -139.65969727 11.49339844 -138.96923828 11.23242188 C-121.15814994 4.597567 -102.32834964 0.48671907 -83.48095703 -1.70751953 C-81.10706867 -1.98737766 -78.73993564 -2.30171634 -76.37109375 -2.62109375 C-50.80599957 -5.85336925 -25.2960129 -4.55404771 0 0 Z " fill="#98CA37" transform="translate(692,326)"/>
<path d="M0 0 C0.95648437 0.42925781 1.91296875 0.85851562 2.8984375 1.30078125 C29.22358118 13.56511984 47.88895659 35.96861488 58.25 62.875 C62.88728765 75.70498025 64.27021721 87.44905397 64.375 101.0625 C64.38901855 102.31691895 64.40303711 103.57133789 64.41748047 104.86376953 C64.26761581 134.24877036 51.45573576 160.51210212 31.1875 181.25 C10.81979753 201.35004996 -16.28830753 211.20983959 -44.5625 211.375 C-73.87915388 211.16022598 -99.8257649 200.1742351 -120.64697266 179.35302734 C-127.59773685 171.97602657 -132.9970351 163.79907423 -138 155 C-138.85078125 153.54207031 -138.85078125 153.54207031 -139.71875 152.0546875 C-150.65750426 132.80462485 -151.94131457 111.70211851 -151 90 C-150.97196289 89.25234375 -150.94392578 88.5046875 -150.91503906 87.734375 C-149.83753714 65.51784052 -137.74820772 42.28619586 -123 26 C-122.21496094 25.12214844 -121.42992187 24.24429688 -120.62109375 23.33984375 C-90.4863175 -8.59134242 -39.9372651 -19.6233536 0 0 Z " fill="#040407" transform="translate(687,507)"/>
<path d="M0 0 C1.21839066 -0.00953201 2.43678131 -0.01906403 3.6920929 -0.02888489 C5.66244759 -0.02751778 5.66244759 -0.02751778 7.67260742 -0.02612305 C9.04017771 -0.0300129 10.4077468 -0.03434816 11.77531433 -0.03910828 C14.64093949 -0.04656401 17.50644144 -0.04628473 20.37207031 -0.04101562 C24.03041649 -0.03523304 27.68825438 -0.05212516 31.34651661 -0.0753603 C34.17167573 -0.09015214 36.99671414 -0.09096179 39.82190514 -0.08785057 C41.82203274 -0.08860862 43.82214171 -0.10244322 45.82221985 -0.11653137 C52.25795357 -0.08388331 57.36437401 -0.05704897 62.96557617 3.2746582 C64.86744204 5.34526104 66.42583419 7.25168112 68.02807617 9.5246582 C98.50143232 50.37786698 145.25082882 78.72252522 195.49658203 86.84838867 C197.13987226 87.13210119 198.77701498 87.4541118 200.40527344 87.81420898 C208.35051245 89.51412059 216.21326513 89.5790846 224.29736328 89.53540039 C226.63169818 89.52475569 228.96525009 89.535309 231.29956055 89.5480957 C241.34529928 89.55784035 251.03111125 88.79478335 260.96557617 87.2746582 C262.35232544 87.06365479 262.35232544 87.06365479 263.76708984 86.84838867 C281.80034678 83.89864368 298.43265696 77.7314417 314.98876953 70.11962891 C316.22639038 69.56408325 316.22639038 69.56408325 317.48901367 68.99731445 C318.21008301 68.66481689 318.93115234 68.33231934 319.67407227 67.98974609 C322.62486475 67.06892027 324.8892262 66.94749402 327.96557617 67.2746582 C330.09301758 68.59960938 330.09301758 68.59960938 332.19213867 70.63012695 C333.05226563 71.45303223 333.91239258 72.2759375 334.79858398 73.1237793 C335.85560829 74.1727033 336.91111827 75.22315429 337.96557617 76.2746582 C339.33630319 77.62577423 340.70707485 78.97684497 342.07788086 80.32788086 C346.8565971 85.05667754 351.59926842 89.8209061 356.34057617 94.5871582 C357.99528936 96.24689746 359.65023548 97.90640453 361.30541992 99.56567383 C364.96544206 103.23552939 368.6229041 106.90791959 372.27923584 110.58145142 C374.17197689 112.48189934 376.06759312 114.37944548 377.96557617 116.2746582 C373.65681718 121.20409438 368.64346163 123.96861851 362.90307617 127.0246582 C361.92209961 127.54979004 360.94112305 128.07492187 359.93041992 128.6159668 C334.91963302 141.85057295 308.53860225 151.43406195 280.73608398 156.86083984 C278.87372379 157.2239552 278.87372379 157.2239552 276.96557617 158.2746582 C244.6488059 164.01129906 209.06052734 163.76312568 176.96557617 157.2746582 C175.44130113 157.00380166 173.91659116 156.73537556 172.39135742 156.4699707 C112.67363064 145.37934109 53.31844951 108.00739067 15.96557617 60.2746582 C14.90016602 59.02749023 14.90016602 59.02749023 13.81323242 57.75512695 C4.1997381 46.48588141 -12.91623966 26.12741037 -14.34692383 10.9621582 C-13.98194413 6.65539779 -13.09458854 5.24981834 -10.03442383 2.2746582 C-6.67333893 0.14085163 -3.94130479 0.01694854 0 0 Z " fill="#39B359" transform="translate(414.034423828125,729.725341796875)"/>
<path d="M0 0 C1.06412109 -0.00571014 2.12824219 -0.01142029 3.22460938 -0.01730347 C4.39710739 -0.01842133 5.56960541 -0.01953918 6.77763367 -0.02069092 C8.00859772 -0.02565582 9.23956177 -0.03062073 10.50782776 -0.03573608 C13.89018444 -0.04785843 17.27247919 -0.05530658 20.65485024 -0.05974674 C22.76787029 -0.06267668 24.8808849 -0.06678136 26.99390221 -0.07125092 C33.60456674 -0.08492858 40.21521886 -0.09459357 46.82589656 -0.09845281 C54.45766289 -0.10293253 62.08925003 -0.12047514 69.72096187 -0.1494534 C75.61912443 -0.17107185 81.51723659 -0.18115719 87.41543835 -0.18249393 C90.9384701 -0.18354197 94.46133346 -0.18944921 97.9843235 -0.20731354 C101.91548565 -0.22685925 105.84642407 -0.22250457 109.77763367 -0.21600342 C111.52727165 -0.22982559 111.52727165 -0.22982559 113.31225586 -0.243927 C114.38483643 -0.23835785 115.45741699 -0.2327887 116.5625 -0.22705078 C117.49183507 -0.22851734 118.42117014 -0.2299839 119.37866688 -0.2314949 C123.77698438 0.39938021 126.33887384 2.41969422 129.22172546 5.70294189 C132.1135795 9.73088144 132.20166506 11.91434039 131.61625671 16.74591064 C130.54352739 20.73126262 128.10447214 23.52202677 124.97172546 26.14044189 C121.9775202 27.13851032 119.96572014 27.2778198 116.83665466 27.30107117 C115.77404922 27.31111679 114.71144379 27.32116241 113.61663818 27.33151245 C112.45087753 27.33734344 111.28511688 27.34317444 110.08403015 27.34918213 C108.85613266 27.35896591 107.62823517 27.36874969 106.36312866 27.37882996 C102.28996226 27.40880317 98.21683088 27.43047864 94.14360046 27.44903564 C93.45007382 27.45233297 92.75654718 27.45563029 92.04200459 27.45902753 C85.49861681 27.4898072 78.95522435 27.51650804 72.41178513 27.53344631 C64.0498364 27.55534784 55.68853015 27.59731329 47.32683825 27.66688389 C41.44306891 27.71417099 35.55947261 27.73838605 29.67551923 27.7456432 C26.16337629 27.7505925 22.6519579 27.76560196 19.14002228 27.8053875 C15.218825 27.84922475 11.29844966 27.84534642 7.3769989 27.83746338 C6.21933517 27.85746399 5.06167145 27.8774646 3.868927 27.89807129 C-2.51367755 27.84046034 -6.24536434 27.22464741 -10.83549118 22.62374973 C-13.71062949 19.04831822 -13.47154376 15.41640263 -13.45405579 10.98028564 C-12.78524224 6.51948335 -10.43825772 3.94970265 -7.02827454 1.14044189 C-4.51953324 -0.11392875 -2.80840599 0.00900024 0 0 Z " fill="#A7D030" transform="translate(317.0282745361328,665.8595581054688)"/>
<path d="M0 0 C1.00377686 -0.00571014 2.00755371 -0.01142029 3.04174805 -0.01730347 C4.69995575 -0.01898026 4.69995575 -0.01898026 6.3916626 -0.02069092 C8.13328674 -0.02813828 8.13328674 -0.02813828 9.91009521 -0.03573608 C13.76626164 -0.0503878 17.62238692 -0.05716511 21.47857666 -0.06268311 C23.47648825 -0.06698017 25.47439985 -0.07127774 27.47231126 -0.07565761 C33.04184371 -0.087475 38.61136616 -0.09500798 44.18090987 -0.09845281 C51.38025706 -0.10293019 58.57941408 -0.12046151 65.77870345 -0.1494534 C71.34482516 -0.1710889 76.91089344 -0.18115813 82.47705674 -0.18249393 C85.80060295 -0.18354092 89.12392998 -0.19087509 92.4474411 -0.20731354 C96.1581616 -0.22435521 99.86841892 -0.22249789 103.5791626 -0.21600342 C105.22522491 -0.22982559 105.22522491 -0.22982559 106.90454102 -0.243927 C114.18472532 -0.20398393 118.59534869 0.72192397 124.11920166 5.76544189 C126.83997058 10.08666311 127.20029418 13.16339952 126.24420166 18.14044189 C123.98652462 22.7426297 121.00456231 26.12773606 116.24420166 28.14044189 C112.35246195 28.73530168 108.49778546 28.70748361 104.56671143 28.6897583 C103.39689728 28.69998016 102.22708313 28.71020203 101.02182007 28.72073364 C97.15954049 28.74850651 93.2979754 28.74661394 89.43560791 28.74200439 C87.427522 28.74662461 85.41945366 28.75363221 83.41137546 28.76081789 C77.10061398 28.78297669 70.79009061 28.78390082 64.47930908 28.77178955 C57.98063935 28.75970903 51.48283556 28.78433944 44.98431355 28.82692969 C39.39341534 28.86221676 33.80279209 28.87415599 28.21178669 28.8676542 C24.8773583 28.86403676 21.54404021 28.87185795 18.20962715 28.89708328 C14.48943592 28.92177442 10.77124591 28.90825524 7.05108643 28.8850708 C5.95424026 28.90035828 4.8573941 28.91564575 3.72731018 28.93139648 C-2.39296379 28.84714368 -5.98438953 28.13839596 -10.44432163 23.81738853 C-13.50700327 19.90122773 -14.35618762 16.43323331 -14.28314209 11.53106689 C-13.29854848 7.06757587 -10.0930979 4.10021888 -6.75579834 1.14044189 C-4.31264102 -0.08113677 -2.73174809 0.00928387 0 0 Z " fill="#A5CD31" transform="translate(315.75579833984375,558.8595581054688)"/>
<path d="M0 0 C0.70324905 -0.00554901 1.40649811 -0.01109802 2.13105774 -0.01681519 C4.44029328 -0.02856205 6.74754435 -0.00439047 9.05664062 0.02148438 C10.67036856 0.02319693 12.28409927 0.02312832 13.89782715 0.0213623 C17.27379102 0.02301272 20.64908858 0.04165833 24.02490234 0.07324219 C28.34248328 0.11291929 32.65919241 0.11728574 36.97692108 0.10977936 C40.30735191 0.10670323 43.6375884 0.11885293 46.9679718 0.13591003 C48.55950196 0.14291886 50.15105413 0.14606715 51.74259949 0.1452179 C53.97072819 0.14702476 56.19783103 0.1684803 58.42578125 0.1953125 C60.32390564 0.20794128 60.32390564 0.20794128 62.26037598 0.2208252 C67.40191497 0.80818553 70.62652625 2.41451585 74.08789062 6.24023438 C76.15930859 10.54241015 76.44173598 13.92112324 75.71289062 18.61523438 C74.23695545 21.84823523 72.44696118 24.33684225 69.71289062 26.61523438 C66.17320613 27.79512921 63.31985285 27.77135094 59.58276367 27.80810547 C58.86044556 27.81628296 58.13812744 27.82446045 57.3939209 27.83288574 C55.00415875 27.85769247 52.61445579 27.8742432 50.22460938 27.88867188 C49.40740732 27.89399555 48.59020527 27.89931923 47.74823952 27.90480423 C43.42307092 27.93151478 39.09793098 27.95089669 34.77270508 27.96533203 C31.19627318 27.97867389 27.62041149 28.00653324 24.04418945 28.04736328 C19.7223734 28.096703 15.4010747 28.1214544 11.07898903 28.12855911 C9.43435836 28.13526715 7.78973903 28.15047773 6.14526939 28.17444992 C3.83997045 28.2061392 1.53666154 28.20613388 -0.76879883 28.19873047 C-2.07879349 28.20681732 -3.38878815 28.21490417 -4.73847961 28.22323608 C-9.4146421 27.42204944 -10.95556646 25.94166525 -14.28710938 22.61523438 C-16.98885877 18.56261028 -16.81628465 15.36941224 -16.28710938 10.61523438 C-13.23203378 3.1472718 -7.76173925 -0.01260143 0 0 Z " fill="#9FCE33" transform="translate(379.287109375,612.384765625)"/>
<path d="M0 0 C4.78764451 4.00490557 9.33903297 8.17456367 13.77392578 12.56518555 C14.41065216 13.19212814 15.04737854 13.81907074 15.70339966 14.4650116 C17.78715951 16.51911476 19.86687211 18.57723377 21.9453125 20.63671875 C22.66080135 21.34563578 23.37629021 22.0545528 24.11346054 22.78495216 C27.89632964 26.53536575 31.67520925 30.28975545 35.45166016 34.04663086 C38.56272947 37.13987286 41.68209148 40.22436896 44.80908203 43.30151367 C48.60423662 47.03627051 52.38426395 50.78573396 56.15417099 54.54596901 C57.5850649 55.96834697 59.02105645 57.38561722 60.46237564 58.79743004 C76.36488576 74.39160446 76.36488576 74.39160446 78.6640625 86.49609375 C78.55911217 94.3988534 77.03653139 101.12084088 73 108 C72.01 108.66 71.02 109.32 70 110 C72 104 72 104 72.765625 101.80859375 C73.16007813 100.66583984 73.16007813 100.66583984 73.5625 99.5 C73.81128906 98.7884375 74.06007813 98.076875 74.31640625 97.34375 C75.86791457 92.02429292 76.12162221 88.24361729 74.625 82.875 C74.34914063 81.86179687 74.07328125 80.84859375 73.7890625 79.8046875 C73.52867187 78.87914062 73.26828125 77.95359375 73 77 C72.83757812 76.236875 72.67515625 75.47375 72.5078125 74.6875 C72.34023438 74.130625 72.17265625 73.57375 72 73 C71.4225 72.71125 70.845 72.4225 70.25 72.125 C67.88477649 70.94238825 67.00417177 69.96673466 65.375 67.9375 C63.32880603 64.99175287 63.32880603 64.99175287 61 64 C61 63.34 61 62.68 61 62 C60.01 61.67 59.02 61.34 58 61 C56.59202576 59.56954956 56.59202576 59.56954956 55.05249023 57.67919922 C50.58882277 52.42330497 45.71230093 47.61498757 40.81489754 42.770298 C39.12707277 41.10007402 37.44299693 39.42614993 35.75987244 37.75119019 C30.98019385 32.99580319 26.19466748 28.24633137 21.4050293 23.50097656 C18.46205353 20.58470181 15.52390204 17.66363916 12.58871269 14.73952866 C11.47138441 13.62841772 10.35216111 12.51920908 9.23103523 11.41193008 C7.67301292 9.87301403 6.12114695 8.32813711 4.57055664 6.78173828 C3.68566055 5.90429962 2.80076447 5.02686096 1.88905334 4.12283325 C0 2 0 2 0 0 Z " fill="#45C45E" transform="translate(803,733)"/>
<path d="M0 0 C20.51009174 16.94311927 20.51009174 16.94311927 22.46875 30.1640625 C22.85058235 38.16345029 21.06198003 45.07747066 17 52 C16.01 52.66 15.02 53.32 14 54 C16 48 16 48 16.765625 45.80859375 C17.02859375 45.04675781 17.2915625 44.28492188 17.5625 43.5 C17.81128906 42.7884375 18.06007813 42.076875 18.31640625 41.34375 C19.86791457 36.02429292 20.12162221 32.24361729 18.625 26.875 C18.21121094 25.35519531 18.21121094 25.35519531 17.7890625 23.8046875 C17.39847656 22.41636719 17.39847656 22.41636719 17 21 C16.83757813 20.236875 16.67515625 19.47375 16.5078125 18.6875 C16.34023438 18.130625 16.17265625 17.57375 16 17 C15.4225 16.71125 14.845 16.4225 14.25 16.125 C11.88477649 14.94238825 11.00417177 13.96673466 9.375 11.9375 C7.32880603 8.99175287 7.32880603 8.99175287 5 8 C5 7.34 5 6.68 5 6 C4.01 5.67 3.02 5.34 2 5 C0.8125 2.4375 0.8125 2.4375 0 0 Z " fill="#4ABB52" transform="translate(859,789)"/>
<path d="M0 0 C0.33 0 0.66 0 1 0 C0.55723184 7.6607246 -1.55034669 14.50901873 -4.01831055 21.72729492 C-4.67910548 23.66291058 -5.32401148 25.60326159 -5.96679688 27.54492188 C-8.87780287 36.23578133 -12.26657357 44.62873653 -16 53 C-16.33 53 -16.66 53 -17 53 C-16.43350437 47.56164191 -15.06369986 43.04560979 -13 38 C-12.33287511 36.3335167 -11.66622654 34.66684265 -11 33 C-10.49146484 31.72962891 -10.49146484 31.72962891 -9.97265625 30.43359375 C-9.49119141 29.22896484 -9.49119141 29.22896484 -9 28 C-8.73058594 27.33097656 -8.46117187 26.66195312 -8.18359375 25.97265625 C-6.36477764 21.3161061 -5.03710989 16.5972655 -3.76171875 11.765625 C-2.66641852 7.78884263 -1.3558461 3.89445157 0 0 Z " fill="#79C43E" transform="translate(911,670)"/>
<path d="M0 0 C0.33 0 0.66 0 1 0 C1.41277905 39.63313956 1.41277905 39.63313956 -1 59 C-3.49910752 55.25133871 -3.055529 52.65679974 -2.6875 48.375 C-2.63916016 47.70082031 -2.59082031 47.02664063 -2.54101562 46.33203125 C-2.28126363 42.86647931 -1.92939819 39.42775413 -1.4921875 35.98046875 C-0.6958791 28.99826794 -0.63379497 21.95684774 -0.4375 14.9375 C-0.39421245 13.4850161 -0.35059526 12.03254199 -0.30664062 10.58007812 C-0.20062746 7.05349009 -0.09907252 3.52679065 0 0 Z " fill="#70B533" transform="translate(920,581)"/>
<path d="M0 0 C-2.69889739 1.79926492 -5.45228001 3.36386919 -8.29492188 4.92016602 C-16.58063501 9.47050073 -24.34380231 14.45450065 -32 20 C-32 19.01 -32 18.02 -32 17 C-30.01492067 15.27796662 -28.09091045 13.79797422 -25.9375 12.3125 C-25.31641357 11.87768311 -24.69532715 11.44286621 -24.05541992 10.99487305 C-19.45030374 7.83982469 -14.71396374 4.98180495 -9.8125 2.3125 C-9.17755615 1.9616333 -8.5426123 1.6107666 -7.88842773 1.24926758 C-3.36987681 -1.12329227 -3.36987681 -1.12329227 0 0 Z " fill="#52C16F" transform="translate(586,471)"/>
<path d="M0 0 C12.71960245 4.60307291 26.61667317 18.92500976 34 30 C33.505 31.485 33.505 31.485 33 33 C32.64550781 32.50113281 32.29101562 32.00226562 31.92578125 31.48828125 C23.62005038 20.28660547 13.597672 11.0426583 2.38671875 2.828125 C1.59910156 2.22484375 0.81148437 1.6215625 0 1 C0 0.67 0 0.34 0 0 Z " fill="#5ECB73" transform="translate(724,483)"/>
<path d="M0 0 C6.33030626 1.4968901 12.43853612 3.5707104 18.53515625 5.8359375 C19.18532715 6.0745752 19.83549805 6.31321289 20.50537109 6.55908203 C22.21933552 7.22938404 23.88290285 8.02535898 25.53515625 8.8359375 C26.03015625 10.3209375 26.03015625 10.3209375 26.53515625 11.8359375 C22.67548366 10.60939432 19.073169 9.17763303 15.41015625 7.4609375 C6.83968321 3.80492558 -2.32896848 2.43403794 -11.46484375 0.8359375 C-7.25339886 -1.97169243 -4.82080266 -0.90207 0 0 Z " fill="#5AC473" transform="translate(666.46484375,498.1640625)"/>
<path d="M0 0 C0.99 0.33 1.98 0.66 3 1 C2.01 2.98 1.02 4.96 0 7 C0.67417969 7.01933594 1.34835937 7.03867187 2.04296875 7.05859375 C6.55829125 8.49610065 9.10256899 11.68066743 12.3125 15.0625 C12.95767578 15.72572266 13.60285156 16.38894531 14.26757812 17.07226562 C15.85447018 18.70617671 17.43126328 20.34868147 19 22 C16 22 16 22 13.51171875 19.69921875 C12.08910332 18.20477421 10.69008488 16.6903018 9.29101562 15.17382812 C6.11592203 11.83975905 3.10707378 9.99707206 -1 8 C-1.875 5.3125 -1.875 5.3125 -2 3 C-1.34 3 -0.68 3 0 3 C0 2.01 0 1.02 0 0 Z " fill="#35BE6E" transform="translate(764,690)"/>
<path d="M0 0 C-21.23404255 10 -21.23404255 10 -27 10 C-27 9.34 -27 8.68 -27 8 C-26.01 8 -25.02 8 -24 8 C-24 7.34 -24 6.68 -24 6 C-22.7625 5.773125 -21.525 5.54625 -20.25 5.3125 C-15.05342179 4.19069899 -10.4199817 2.13577972 -5.6015625 -0.07421875 C-3 -1 -3 -1 0 0 Z " fill="#2EBE7B" transform="translate(708,744)"/>
<path d="M0 0 C0.66 0.33 1.32 0.66 2 1 C-0.54980193 4.14093249 -3.06780441 4.81247177 -6.9375 5.75 C-7.97777344 6.01296875 -9.01804687 6.2759375 -10.08984375 6.546875 C-12.8553723 6.97748079 -14.40063066 6.927004 -17 6 C-17.33 6.66 -17.66 7.32 -18 8 C-20.31 7.67 -22.62 7.34 -25 7 C-25 6.67 -25 6.34 -25 6 C-23.2984375 5.72736328 -23.2984375 5.72736328 -21.5625 5.44921875 C-20.04159623 5.19573479 -18.52076678 4.94180459 -17 4.6875 C-16.25621094 4.56955078 -15.51242187 4.45160156 -14.74609375 4.33007812 C-10.82559291 3.66529755 -7.26463877 2.80234269 -3.5625 1.33203125 C-2.386875 0.89246094 -1.21125 0.45289063 0 0 Z " fill="#279F63" transform="translate(680,711)"/>
<path d="M0 0 C3.81889162 1.27296387 4.98227087 3.21735399 7.40234375 6.30859375 C9.14141224 8.14971027 10.7552134 8.87987416 13 10 C13.99 11.485 13.99 11.485 15 13 C15.99 13.33 16.98 13.66 18 14 C19.6875 15.4375 19.6875 15.4375 21 17 C21 17.66 21 18.32 21 19 C13.0099452 15.47387253 5.80967867 8.43775204 0 2 C0 1.34 0 0.68 0 0 Z " fill="#30B37B" transform="translate(539,713)"/>
<path d="M0 0 C3.53394713 0.61844075 5.65649396 2.04065294 8.5 4.1875 C14.01178954 8.16915095 19.8568278 11.11840892 26 14 C23.58161811 14.86841895 22.32633024 15.10286497 19.84375 14.3203125 C12.64005089 10.64642595 6.214786 6.16831001 0 1 C0 0.67 0 0.34 0 0 Z " fill="#2EB976" transform="translate(575,695)"/>
<path d="M0 0 C6.95657646 -0.51530196 11.70833314 1.13927282 18 4 C19.30517578 4.57234375 19.30517578 4.57234375 20.63671875 5.15625 C22.76393757 6.09129124 24.88430088 7.03924774 27 8 C22.50714592 9.44892842 19.38829476 7.90583064 15.1875 6.1875 C10.16773581 4.18430772 5.22424254 2.39996042 0 1 C0 0.67 0 0.34 0 0 Z " fill="#5DC871" transform="translate(678,463)"/>
<path d="M0 0 C1.74120117 0.00676758 1.74120117 0.00676758 3.51757812 0.01367188 C6.36593934 0.02539353 9.21419222 0.0418024 12.0625 0.0625 C12.0625 0.3925 12.0625 0.7225 12.0625 1.0625 C11.07068726 1.10008423 11.07068726 1.10008423 10.05883789 1.13842773 C7.08067695 1.25403102 4.1028608 1.37691754 1.125 1.5 C-0.43637695 1.55897461 -0.43637695 1.55897461 -2.02929688 1.61914062 C-3.51333008 1.68198242 -3.51333008 1.68198242 -5.02734375 1.74609375 C-5.94378662 1.78275146 -6.86022949 1.81940918 -7.80444336 1.85717773 C-9.9195728 1.83253864 -9.9195728 1.83253864 -10.9375 3.0625 C-12.95714199 3.13494053 -14.97917124 3.14627188 -17 3.125 C-18.10472656 3.11597656 -19.20945312 3.10695313 -20.34765625 3.09765625 C-21.62962891 3.08025391 -21.62962891 3.08025391 -22.9375 3.0625 C-16.35417205 -1.3263853 -7.62715244 -0.05636895 0 0 Z " fill="#173C21" transform="translate(642.9375,497.9375)"/>
<path d="M0 0 C0.66 0.33 1.32 0.66 2 1 C-7.75624462 12.416882 -7.75624462 12.416882 -12 16 C-12.66 16 -13.32 16 -14 16 C-12.34136495 11.67495164 -9.128959 8.90581175 -5.875 5.75 C-5.31167969 5.19570313 -4.74835938 4.64140625 -4.16796875 4.0703125 C-2.78313972 2.70895515 -1.39216796 1.35385141 0 0 Z " fill="#111808" transform="translate(508,448)"/>
<path d="M0 0 C2.13485836 3.62557843 2.74506362 7.26387907 3.5 11.375 C4.3664987 16.07481362 5.38367366 20.49936717 7 25 C4 24 4 24 3.0859375 22.21484375 C1.49243901 17.1103953 0.55951592 12.31540128 0 7 C-0.33 6.34 -0.66 5.68 -1 5 C-0.72057545 3.32345271 -0.39171753 1.65391846 0 0 Z " fill="#2B9E66" transform="translate(536,623)"/>
<path d="M0 0 C0.33 0 0.66 0 1 0 C1.33 4.29 1.66 8.58 2 13 C2.33 13 2.66 13 3 13 C2.67 19.27 2.34 25.54 2 32 C1.67 32 1.34 32 1 32 C-0.2138361 21.33558287 -0.09531193 10.71729679 0 0 Z " fill="#238255" transform="translate(496,598)"/>
<path d="M0 0 C9.57 0 19.14 0 29 0 C29 0.33 29 0.66 29 1 C27.73542969 1.06058594 26.47085938 1.12117187 25.16796875 1.18359375 C23.50780129 1.26800904 21.84764563 1.35265655 20.1875 1.4375 C19.35412109 1.47681641 18.52074219 1.51613281 17.66210938 1.55664062 C16.85966797 1.59853516 16.05722656 1.64042969 15.23046875 1.68359375 C14.49207764 1.72025146 13.75368652 1.75690918 12.99291992 1.79467773 C10.792505 1.94842141 10.792505 1.94842141 8 3 C5.95703125 2.87890625 5.95703125 2.87890625 3.8125 2.5625 C2.554375 2.376875 1.29625 2.19125 0 2 C0 1.34 0 0.68 0 0 Z " fill="#29B06E" transform="translate(625,718)"/>
<path d="M0 0 C-0.33 0.99 -0.66 1.98 -1 3 C-3.109375 3.94921875 -3.109375 3.94921875 -5.75 4.6875 C-6.61109375 4.93886719 -7.4721875 5.19023437 -8.359375 5.44921875 C-10.98817853 5.99753428 -13.32352338 6.10108994 -16 6 C-11.74276476 2.11295913 -5.72456601 0 0 0 Z " fill="#94BB30" transform="translate(560,336)"/>
<path d="M0 0 C0 0.33 0 0.66 0 1 C-8.66921405 4.0153788 -17.02322096 3.15829407 -26 2 C-26 1.67 -26 1.34 -26 1 C-23.16681141 0.83049299 -20.33349012 0.66432466 -17.5 0.5 C-16.70851563 0.45230469 -15.91703125 0.40460937 -15.1015625 0.35546875 C-10.057819 0.06607363 -5.05202732 -0.04634887 0 0 Z " fill="#2CC980" transform="translate(662,718)"/>
<path d="M0 0 C0.99 0.33 1.98 0.66 3 1 C-1.95 5.62 -6.9 10.24 -12 15 C-12 12 -12 12 -9.375 9.08203125 C-8.25750594 7.98449244 -7.13214357 6.89492105 -6 5.8125 C-5.42765625 5.25369141 -4.8553125 4.69488281 -4.265625 4.11914062 C-2.85037212 2.73926907 -1.42602845 1.36873266 0 0 Z " fill="#54D17D" transform="translate(549,492)"/>
<path d="M0 0 C0.66 0.33 1.32 0.66 2 1 C0.61559342 2.63474589 -0.78303245 4.25745662 -2.1875 5.875 C-2.96480469 6.77992188 -3.74210938 7.68484375 -4.54296875 8.6171875 C-6.99573203 10.99586095 -8.77053123 12.00190486 -12 13 C-8.19524578 8.43969176 -4.25030379 4.14910608 0 0 Z " fill="#081C11" transform="translate(575,522)"/>
<path d="M0 0 C0 0.66 0 1.32 0 2 C-1.74635165 2.53293835 -3.49727652 3.05090663 -5.25 3.5625 C-6.22453125 3.85253906 -7.1990625 4.14257812 -8.203125 4.44140625 C-10.96243932 4.99249836 -12.3912824 4.93789609 -15 4 C-5.77448747 -0.59225513 -5.77448747 -0.59225513 0 0 Z " fill="#36A24A" transform="translate(742,797)"/>
<path d="M0 0 C-0.99 1.485 -0.99 1.485 -2 3 C-4.05859375 3.36328125 -4.05859375 3.36328125 -6.4375 3.3125 C-7.21996094 3.30863281 -8.00242187 3.30476563 -8.80859375 3.30078125 C-11 3 -11 3 -14 1 C-9.32798795 -0.20568053 -4.78503708 -0.09382426 0 0 Z " fill="#A5CE33" transform="translate(631,323)"/>
<path d="M0 0 C6.45892714 -0.40368295 11.06108578 0.4084738 17 3 C13.12813552 4.44715727 10.1767672 3.5441918 6.25 2.5625 C5.07953125 2.27503906 3.9090625 1.98757813 2.703125 1.69140625 C1.81109375 1.46324219 0.9190625 1.23507812 0 1 C0 0.67 0 0.34 0 0 Z " fill="#289764" transform="translate(602,753)"/>
<path d="M0 0 C-2.36762941 2.36762941 -3.70059833 2.58455766 -6.9375 3.25 C-7.81277344 3.44078125 -8.68804688 3.6315625 -9.58984375 3.828125 C-12 4 -12 4 -15 2 C-13.25364835 1.46706165 -11.50272348 0.94909337 -9.75 0.4375 C-8.77546875 0.14746094 -7.8009375 -0.14257812 -6.796875 -0.44140625 C-4.03756068 -0.99249836 -2.6087176 -0.93789609 0 0 Z " fill="#4CAF61" transform="translate(616,461)"/>
<path d="M0 0 C4.97959184 4.97959184 4.97959184 4.97959184 5.0625 9.125 C5.041875 10.07375 5.02125 11.0225 5 12 C4.01 12.495 4.01 12.495 3 13 C2.01 8.71 1.02 4.42 0 0 Z " fill="#94C02C" transform="translate(444,670)"/>
<path d="M0 0 C1.65087847 0.59024148 3.29562407 1.19766006 4.9375 1.8125 C6.31228516 2.31716797 6.31228516 2.31716797 7.71484375 2.83203125 C10 4 10 4 11 7 C6.76570244 5.68938409 2.92592596 4.05643741 -1 2 C-0.67 1.34 -0.34 0.68 0 0 Z " fill="#53B36A" transform="translate(682,503)"/>
<path d="M0 0 C0 0.66 0 1.32 0 2 C-0.99 2 -1.98 2 -3 2 C-3.33 2.99 -3.66 3.98 -4 5 C-6.375 6.3125 -6.375 6.3125 -9 7 C-9.99 6.34 -10.98 5.68 -12 5 C-10.37750059 4.16180842 -8.75191503 3.3295884 -7.125 2.5 C-6.22007812 2.0359375 -5.31515625 1.571875 -4.3828125 1.09375 C-2 0 -2 0 0 0 Z " fill="#092118" transform="translate(712,742)"/>
<path d="M0 0 C-2.46301423 2.46301423 -4.27360036 2.76766521 -7.625 3.625 C-9.12933594 4.01558594 -9.12933594 4.01558594 -10.6640625 4.4140625 C-11.43492187 4.60742188 -12.20578125 4.80078125 -13 5 C-8.78969202 0.49932596 -6.1058964 -0.13568659 0 0 Z " fill="#55C26E" transform="translate(604,464)"/>
<path d="M0 0 C0.66 0 1.32 0 2 0 C1.34 3.63 0.68 7.26 0 11 C-0.66 10.67 -1.32 10.34 -2 10 C-2.17942163 6.05272412 -2.09350689 3.4019487 0 0 Z " fill="#76BB3F" transform="translate(826,703)"/>
<path d="M0 0 C-3.3 2.31 -6.6 4.62 -10 7 C-10 6.01 -10 5.02 -10 4 C-8.57421875 2.578125 -8.57421875 2.578125 -6.6875 1.25 C-6.07261719 0.80140625 -5.45773437 0.3528125 -4.82421875 -0.109375 C-3 -1 -3 -1 0 0 Z " fill="#53C674" transform="translate(564,484)"/>
<path d="M0 0 C0.66 0 1.32 0 2 0 C2.99 3.63 3.98 7.26 5 11 C4.01 11.495 4.01 11.495 3 12 C2.49166409 10.75336669 1.99368855 9.50250613 1.5 8.25 C1.2215625 7.55390625 0.943125 6.8578125 0.65625 6.140625 C0 4 0 4 0 0 Z " fill="#30B278" transform="translate(502,648)"/>
<path d="M0 0 C4.29 0.99 8.58 1.98 13 3 C9 5 9 5 6.640625 4.5390625 C5.85171875 4.23742187 5.0628125 3.93578125 4.25 3.625 C3.45078125 3.32851563 2.6515625 3.03203125 1.828125 2.7265625 C1.22484375 2.48679687 0.6215625 2.24703125 0 2 C0 1.34 0 0.68 0 0 Z " fill="#2DB675" transform="translate(606,712)"/>
<path d="M0 0 C0.99 0.33 1.98 0.66 3 1 C3 3.31 3 5.62 3 8 C2.01 8.495 2.01 8.495 1 9 C0.67 6.03 0.34 3.06 0 0 Z " fill="#7BB733" transform="translate(384,505)"/>
<path d="M0 0 C2.96179996 1.37512141 5.42143842 3.00369426 8 5 C8.99 5.66 9.98 6.32 11 7 C8.37428995 7.38613383 6.6156121 7.38493778 4.33203125 5.95703125 C2.6875 4.625 2.6875 4.625 0 2 C0 1.34 0 0.68 0 0 Z " fill="#7CC243" transform="translate(862,750)"/>
<path d="M0 0 C0.66 0.33 1.32 0.66 2 1 C1.21654285 2.17219543 0.42297164 3.33763668 -0.375 4.5 C-0.81585937 5.1496875 -1.25671875 5.799375 -1.7109375 6.46875 C-2.13632812 6.9740625 -2.56171875 7.479375 -3 8 C-3.66 8 -4.32 8 -5 8 C-4.45773019 4.20411134 -2.79872437 2.52788007 0 0 Z " fill="#74BA41" transform="translate(879,749)"/>
<path d="M0 0 C0.66 0.66 1.32 1.32 2 2 C0.68 4.64 -0.64 7.28 -2 10 C-2.99 9.67 -3.98 9.34 -5 9 C-3.35 6.03 -1.7 3.06 0 0 Z " fill="#77BE3E" transform="translate(890,727)"/>
<path d="M0 0 C0.66 0 1.32 0 2 0 C5 5.625 5 5.625 5 9 C4.34 9 3.68 9 3 9 C0 3.375 0 3.375 0 0 Z " fill="#4DB469" transform="translate(772,537)"/>
<path d="M0 0 C4.87362847 0.45336079 7.39042389 1.7089159 11 5 C10.01 5.495 10.01 5.495 9 6 C6.8359375 5.00390625 6.8359375 5.00390625 4.375 3.5625 C3.55773437 3.08941406 2.74046875 2.61632812 1.8984375 2.12890625 C1.27195312 1.75636719 0.64546875 1.38382812 0 1 C0 0.67 0 0.34 0 0 Z " fill="#59C46C" transform="translate(706,473)"/>
<path d="M0 0 C-2.91403262 1.94268841 -5.85808576 3.46395304 -9 5 C-9.66 4.34 -10.32 3.68 -11 3 C-9.73581754 2.30034557 -8.46334598 1.61565237 -7.1875 0.9375 C-6.47980469 0.55464844 -5.77210938 0.17179687 -5.04296875 -0.22265625 C-3 -1 -3 -1 0 0 Z " fill="#4CB967" transform="translate(586,471)"/>
<path d="M0 0 C3.34998521 1.11666174 3.79340222 1.74694925 5.6875 4.5625 C6.12449219 5.20316406 6.56148437 5.84382813 7.01171875 6.50390625 C7.33785156 6.99761719 7.66398438 7.49132812 8 8 C6.68 7.67 5.36 7.34 4 7 C4 6.34 4 5.68 4 5 C3.01 4.67 2.02 4.34 1 4 C0.3125 1.9375 0.3125 1.9375 0 0 Z " fill="#9BC22E" transform="translate(851,419)"/>
<path d="M0 0 C0 0.66 0 1.32 0 2 C-6.28571429 4.42857143 -6.28571429 4.42857143 -10 3 C-6.27034861 0.96564469 -4.33094958 0 0 0 Z " fill="#8FB830" transform="translate(531,348)"/>
<path d="M0 0 C1.9375 0.3125 1.9375 0.3125 4 1 C4.33 1.99 4.66 2.98 5 4 C5.66 4.33 6.32 4.66 7 5 C7 5.66 7 6.32 7 7 C4.13302508 5.71480435 2.02392288 4.42870746 0 2 C0 1.34 0 0.68 0 0 Z " fill="#9DC133" transform="translate(305,685)"/>
<path d="M0 0 C2 1 2 1 2.8515625 3.06640625 C3.10679687 3.89011719 3.36203125 4.71382812 3.625 5.5625 C3.88539063 6.38878906 4.14578125 7.21507812 4.4140625 8.06640625 C4.60742188 8.70449219 4.80078125 9.34257813 5 10 C4.01 9.67 3.02 9.34 2 9 C1.26953125 6.93359375 1.26953125 6.93359375 0.8125 4.4375 C0.65394531 3.61121094 0.49539063 2.78492188 0.33203125 1.93359375 C0.16767578 0.97646484 0.16767578 0.97646484 0 0 Z " fill="#2DAD72" transform="translate(538,638)"/>
<path d="M0 0 C0.66 0.66 1.32 1.32 2 2 C-1.465 4.97 -1.465 4.97 -5 8 C-3.8141763 4.62496331 -2.72426311 2.35277269 0 0 Z " fill="#4DC676" transform="translate(535,506)"/>
<path d="M0 0 C2.45484649 2.13464912 3.68134222 3.70720291 4 7 C3.34 7.66 2.68 8.32 2 9 C0.14223235 5.86501708 -0.20140476 3.62528568 0 0 Z " fill="#90C030" transform="translate(893,484)"/>
<path d="M0 0 C4.875 2.625 4.875 2.625 6 6 C5.01 6 4.02 6 3 6 C0.8125 3.5 0.8125 3.5 -1 1 C-0.67 0.67 -0.34 0.34 0 0 Z " fill="#2BA263" transform="translate(732,748)"/>
<path d="M0 0 C3.36720387 1.39332574 4.9859524 2.9789286 7 6 C4 6 4 6 1.8125 4.125 C0 2 0 2 0 0 Z " fill="#77B744" transform="translate(855,743)"/>
<path d="M0 0 C2.96404505 2.80804268 5.44499019 5.18315774 7 9 C6.34 9 5.68 9 5 9 C3.7109375 7.5390625 3.7109375 7.5390625 2.375 5.625 C1.92898438 4.99851562 1.48296875 4.37203125 1.0234375 3.7265625 C0 2 0 2 0 0 Z " fill="#A5D034" transform="translate(858,427)"/>
<path d="M0 0 C4.41889613 1.35021826 6.34345343 3.26115668 9 7 C6.525 6.01 6.525 6.01 4 5 C4 4.34 4 3.68 4 3 C2.68 2.67 1.36 2.34 0 2 C0 1.34 0 0.68 0 0 Z " fill="#A6CF33" transform="translate(811,381)"/>
<path d="M0 0 C2.97 0.495 2.97 0.495 6 1 C2.81237635 3.12508244 0.73487777 3.5020163 -3 4 C-3 3.34 -3 2.68 -3 2 C-2.01 2 -1.02 2 0 2 C0 1.34 0 0.68 0 0 Z " fill="#29A96D" transform="translate(684,750)"/>
<path d="M0 0 C0.66 0.33 1.32 0.66 2 1 C1.01 2.485 1.01 2.485 0 4 C-3.625 4.6875 -3.625 4.6875 -7 5 C-4.702779 3.25728062 -2.40133271 1.60088848 0 0 Z " fill="#2DA96A" transform="translate(697,703)"/>
<path d="M0 0 C0.99 0 1.98 0 3 0 C1.95125002 2.62187494 1.35068687 3.79371361 -1.125 5.25 C-1.74375 5.4975 -2.3625 5.745 -3 6 C-2.01 4.02 -1.02 2.04 0 0 Z " fill="#35BC71" transform="translate(734,667)"/>
<path d="M0 0 C0 0.33 0 0.66 0 1 C-5.16044765 2.512545 -8.65998179 3.33500455 -14 2 C-14 1.67 -14 1.34 -14 1 C-9.23692563 0.04738513 -4.8333472 -0.08333357 0 0 Z " fill="#449451" transform="translate(631,458)"/>
</svg>
